<svg width="33" height="32" viewBox="0 0 33 32" fill="none" xmlns="http://www.w3.org/2000/svg">
<path d="M10.0083 3.13207C10.0964 3.08218 10.2051 3.03522 10.255 3.02348C10.3049 3.01174 10.4077 3.00293 10.49 3C10.5693 3 10.6897 3.01467 10.7543 3.03228C10.8189 3.04989 10.9364 3.10859 11.0186 3.15848C11.0979 3.20838 11.2037 3.29642 11.2506 3.35218C11.2976 3.40795 11.3711 3.52534 11.4885 3.77481V7.23795L11.4092 7.39937C11.3681 7.48741 11.2771 7.61655 11.2125 7.68405C11.1449 7.75449 11.0216 7.84547 10.9393 7.88949C10.7984 7.96286 10.7543 7.97167 10.49 7.97167C10.2433 7.97167 10.1757 7.96286 10.0729 7.90417C10.0024 7.86895 9.88496 7.78384 9.81154 7.71633C9.73517 7.6459 9.64119 7.52263 9.52078 7.29665V5.50638C9.52078 3.71904 9.52078 3.71611 9.58539 3.58404C9.62063 3.51067 9.69406 3.39914 9.74986 3.33457C9.80566 3.27001 9.9202 3.17903 10.0083 3.13207Z" fill="currentColor"/>
<path d="M21.9441 3.17903C22.0234 3.1262 22.1497 3.06163 22.2231 3.03815C22.2995 3.01467 22.4405 3 22.5609 3.00587C22.7077 3.01174 22.8105 3.03522 22.928 3.09098C23.0191 3.135 23.1483 3.23185 23.2217 3.3111C23.2922 3.3874 23.3862 3.52534 23.5007 3.7748V7.23795L23.4185 7.40817C23.3744 7.49915 23.2746 7.63709 23.1982 7.71633C23.1101 7.80144 22.9956 7.88069 22.8898 7.92177C22.7724 7.9658 22.6608 7.98634 22.5168 7.98634C22.3798 7.98634 22.2545 7.9658 22.1409 7.92471C22.0205 7.88069 21.9265 7.81318 21.809 7.69579C21.6974 7.58426 21.6269 7.47861 21.5829 7.36415C21.5183 7.19686 21.5183 7.17045 21.5183 5.50051C21.5183 4.38819 21.53 3.76894 21.5506 3.70143C21.5682 3.64567 21.6299 3.52534 21.6886 3.43729C21.7503 3.34338 21.859 3.23479 21.9441 3.17903Z" fill="currentColor"/>
<path fill-rule="evenodd" clip-rule="evenodd" d="M6.08453 5.02506C5.97292 5.03973 5.76734 5.08669 5.6293 5.12778C5.49126 5.16887 5.28861 5.25104 5.17407 5.30681C5.05953 5.3655 4.87156 5.47996 4.75115 5.56214C4.63073 5.64432 4.42514 5.82628 4.29592 5.96422C4.16375 6.10509 3.99635 6.32227 3.91999 6.44847C3.84656 6.57761 3.74377 6.78598 3.69384 6.91512C3.64391 7.04425 3.5793 7.24969 3.55287 7.37002C3.50294 7.5784 3.5 8.13896 3.5 17.0257V26.4613C3.62335 26.9162 3.72615 27.1804 3.80544 27.3418C3.88768 27.5032 4.03746 27.7409 4.14026 27.8701C4.24011 27.9992 4.41927 28.1841 4.53381 28.281C4.64835 28.3778 4.84513 28.5187 4.97142 28.5921C5.10065 28.6684 5.31211 28.7711 5.44427 28.821C5.57937 28.8709 5.80258 28.9325 5.94355 28.956C6.1697 28.9941 7.45022 29 16.5254 29C26.4876 29 26.8577 28.9971 27.1132 28.9442C27.26 28.9149 27.4832 28.8474 27.6125 28.7975C27.7417 28.7476 27.959 28.639 28.0971 28.5539C28.2351 28.4688 28.4436 28.3074 28.5641 28.1929C28.6815 28.0814 28.8431 27.9024 28.9224 27.7967C29.0017 27.691 29.125 27.4885 29.1984 27.3418C29.2689 27.1951 29.3658 26.9603 29.4099 26.8135L29.4921 26.5494C29.5068 10.1904 29.5009 7.70459 29.4745 7.53144C29.4569 7.4023 29.4099 7.19686 29.3688 7.07653C29.3306 6.9562 29.2513 6.76544 29.1926 6.65098C29.1368 6.53945 29.0281 6.36042 28.9547 6.25477C28.8783 6.14911 28.7344 5.98183 28.6345 5.88204C28.5317 5.77932 28.3673 5.63845 28.2645 5.56508C28.1646 5.4917 27.9649 5.37137 27.8181 5.30094C27.6712 5.2305 27.4539 5.14539 27.3335 5.11311C27.213 5.08082 27.0016 5.03973 26.8636 5.02213C26.7255 5.00745 26.1411 4.99278 25.5625 4.99278H24.514C24.514 6.94153 24.5052 7.21154 24.467 7.3935C24.4406 7.53144 24.3701 7.72807 24.2849 7.8983C24.1762 8.12135 24.1028 8.22113 23.9266 8.39722C23.8062 8.51755 23.6211 8.66723 23.5154 8.72886C23.4097 8.7905 23.2393 8.8668 23.1336 8.90202C22.9985 8.94604 22.8428 8.96659 22.5903 8.97833C22.3289 8.98713 22.1879 8.97833 22.0469 8.94311C21.9412 8.9167 21.7503 8.84332 21.6211 8.78169C21.4918 8.71712 21.3127 8.60266 21.2216 8.52342C21.1335 8.44712 21.0102 8.32385 20.9514 8.25048C20.8927 8.17711 20.7958 8.0333 20.7429 7.92764C20.6871 7.82199 20.6137 7.63709 20.5814 7.51676C20.5226 7.31132 20.5197 7.22034 20.5197 6.14618V4.99278H12.5018L12.5017 5.0014C12.4842 7.34657 12.4841 7.35855 12.4107 7.57546C12.3696 7.69579 12.2874 7.88949 12.2228 8.00102C12.1611 8.11548 12.0231 8.29157 11.9173 8.39722C11.8087 8.50288 11.6442 8.63788 11.5473 8.69658C11.4504 8.75528 11.2976 8.83158 11.2095 8.8668C11.1214 8.90202 10.9804 8.94311 10.9011 8.95778C10.8189 8.97539 10.6309 8.98713 10.4812 8.98713C10.3343 8.9842 10.1258 8.96365 10.0201 8.94017C9.91433 8.9167 9.74105 8.85213 9.62944 8.79637C9.52078 8.74354 9.3475 8.63201 9.2447 8.55571C9.14191 8.47647 8.99212 8.32679 8.91576 8.22113C8.83646 8.11548 8.73954 7.95699 8.69549 7.86895C8.65143 7.7809 8.58976 7.61655 8.55452 7.50209C8.50165 7.31426 8.49578 7.20567 8.49284 6.14618L8.48697 4.99278C6.78353 4.99865 6.19613 5.01039 6.08453 5.02506ZM5.49714 26.2559C5.59993 26.4731 5.69979 26.6081 5.78202 26.6961C5.87307 26.793 5.99936 26.8869 6.08453 26.925L6.23138 26.9896H26.7608C27.0104 26.8722 27.1426 26.7812 27.216 26.7108C27.2865 26.6374 27.3775 26.5054 27.4216 26.4173L27.495 26.2559L27.5059 13.0079C27.5064 12.4553 27.0585 12.0071 26.5059 12.0071H6.48348C5.93079 12.0071 5.48291 12.4555 5.48348 13.0081L5.49714 26.2559Z" fill="currentColor"/>
</svg>
