<svg width="32" height="31" viewBox="0 0 32 31" fill="none" xmlns="http://www.w3.org/2000/svg">
<path fill-rule="evenodd" clip-rule="evenodd" d="M9.14 8.72656H4.3722C2.7594 8.72656 1.45459 10.0328 1.45459 11.6442V26.1726C1.45459 27.7854 2.76085 29.0902 4.3722 29.0902H18.9006C20.5134 29.0902 21.8182 27.7839 21.8182 26.1726V25.4108L8.63642 21.8787C7.07998 21.4617 6.15594 19.8632 6.57336 18.3054L9.14 8.72656Z" fill="transparent" stroke="currentColor" stroke-width="1.45455" stroke-linecap="round" stroke-linejoin="round"/>
<path d="M27.9484 5.97167L13.8986 2.20703C12.3467 1.7912 10.7515 2.71217 10.3357 4.26407L6.57105 18.3139C6.15522 19.8658 7.07619 21.461 8.62809 21.8768L22.6779 25.6414C24.2298 26.0573 25.825 25.1363 26.2408 23.5844L30.0055 9.53456C30.4213 7.98266 29.5003 6.3875 27.9484 5.97167Z" fill="currentColor" stroke="currentColor" stroke-width="1.45455" stroke-linecap="round" stroke-linejoin="round"/>
</svg>
