<svg width="33" height="32" viewBox="0 0 33 32" fill="none" xmlns="http://www.w3.org/2000/svg">
<path d="M24.5 29.0002H8.5C7.17392 29.0002 5.90215 28.4735 4.96447 27.5358C4.02678 26.5981 3.5 25.3263 3.5 24.0002V10.0002C3.5 9.73503 3.60536 9.48067 3.79289 9.29314C3.98043 9.1056 4.23478 9.00024 4.5 9.00024H24.5C25.8261 9.00024 27.0979 9.52703 28.0355 10.4647C28.9732 11.4024 29.5 12.6742 29.5 14.0002V24.0002C29.5 25.3263 28.9732 26.5981 28.0355 27.5358C27.0979 28.4735 25.8261 29.0002 24.5 29.0002ZM5.5 11.0002V24.0002C5.5 24.7959 5.81607 25.559 6.37868 26.1216C6.94129 26.6842 7.70435 27.0002 8.5 27.0002H24.5C25.2956 27.0002 26.0587 26.6842 26.6213 26.1216C27.1839 25.559 27.5 24.7959 27.5 24.0002V14.0002C27.5 13.2046 27.1839 12.4415 26.6213 11.8789C26.0587 11.3163 25.2956 11.0002 24.5 11.0002H5.5Z" fill="currentColor"/>
<path d="M26.5001 11.0002C26.2349 11.0002 25.9805 10.8949 25.793 10.7073C25.6055 10.5198 25.5001 10.2654 25.5001 10.0002V7.25021C25.5193 6.8999 25.4591 6.54978 25.324 6.22599C25.189 5.90219 24.9825 5.61308 24.7201 5.38021C24.4843 5.20357 24.2114 5.08294 23.922 5.0275C23.6327 4.97205 23.3345 4.98324 23.0501 5.06021L6.28011 8.87021C6.05453 8.92101 5.85352 9.04842 5.71131 9.23075C5.5691 9.41307 5.49446 9.63905 5.50011 9.87021C5.50011 10.1354 5.39475 10.3898 5.20722 10.5773C5.01968 10.7649 4.76533 10.8702 4.50011 10.8702C4.23489 10.8702 3.98054 10.7649 3.793 10.5773C3.60547 10.3898 3.50011 10.1354 3.50011 9.87021C3.49424 9.1866 3.72203 8.52149 4.14576 7.98501C4.56949 7.44853 5.16374 7.07286 5.83011 6.92021L22.6101 3.11021C23.1872 2.96429 23.7901 2.9524 24.3725 3.07547C24.9549 3.19854 25.5014 3.45329 25.9701 3.82021C26.4657 4.24085 26.8605 4.76746 27.1254 5.36114C27.3902 5.95482 27.5182 6.6004 27.5001 7.25021V10.0002C27.5001 10.2654 27.3948 10.5198 27.2072 10.7073C27.0197 10.8949 26.7653 11.0002 26.5001 11.0002Z" fill="currentColor"/>
<path d="M28.5 23.0002H21.5C20.4391 23.0002 19.4217 22.5788 18.6716 21.8287C17.9214 21.0785 17.5 20.0611 17.5 19.0002C17.5 17.9394 17.9214 16.922 18.6716 16.1718C19.4217 15.4217 20.4391 15.0002 21.5 15.0002H28.5C28.7652 15.0002 29.0196 15.1056 29.2071 15.2931C29.3946 15.4807 29.5 15.735 29.5 16.0002V22.0002C29.5 22.2655 29.3946 22.5198 29.2071 22.7074C29.0196 22.8949 28.7652 23.0002 28.5 23.0002ZM21.5 17.0002C20.9696 17.0002 20.4609 17.211 20.0858 17.586C19.7107 17.9611 19.5 18.4698 19.5 19.0002C19.5 19.5307 19.7107 20.0394 20.0858 20.4145C20.4609 20.7895 20.9696 21.0002 21.5 21.0002H27.5V17.0002H21.5Z" fill="currentColor"/>
</svg>
