<svg width="29" height="23" viewBox="0 0 29 23" fill="none" xmlns="http://www.w3.org/2000/svg">
<path fill-rule="evenodd" clip-rule="evenodd" d="M8.38135 13.4878C4.18261 13.4878 0.5 15.9873 0.5 18.8354C0.5 22.5 6.43274 22.5 8.38135 22.5C10.33 22.5 16.2616 22.5 16.2616 18.8115C16.2616 15.9754 12.579 13.4878 8.38135 13.4878Z" fill="white"/>
<path fill-rule="evenodd" clip-rule="evenodd" d="M8.34007 11.1116H8.37334C11.2651 11.1116 13.6172 8.73148 13.6172 5.80524C13.6172 2.88008 11.2651 0.5 8.37334 0.5C5.48154 0.5 3.12947 2.88008 3.12947 5.80307C3.11982 8.71953 5.45579 11.1007 8.34007 11.1116Z" fill="white"/>
<path d="M21.2571 7.02104C21.2571 6.3464 21.7976 5.79951 22.4642 5.79951C23.1309 5.79951 23.6714 6.3464 23.6714 7.02104V16.7933C23.6714 17.4679 23.1309 18.0148 22.4642 18.0148C21.7976 18.0148 21.2571 17.4679 21.2571 16.7933V7.02104Z" fill="white"/>
<path d="M27.2928 10.6856C27.9595 10.6856 28.5 11.2325 28.5 11.9072C28.5 12.5818 27.9595 13.1287 27.2928 13.1287L17.6356 13.1287C16.969 13.1287 16.4285 12.5818 16.4285 11.9072C16.4285 11.2325 16.969 10.6856 17.6356 10.6856H27.2928Z" fill="white"/>
</svg>
