<svg width="38" height="38" viewBox="0 0 38 38" fill="none" xmlns="http://www.w3.org/2000/svg">
<path d="M25.8571 17.8385H14.4286L18.1886 13.9974C18.2957 13.8888 18.3807 13.7597 18.4387 13.6174C18.4968 13.4752 18.5266 13.3226 18.5266 13.1684C18.5266 13.0143 18.4968 12.8617 18.4387 12.7194C18.3807 12.5772 18.2957 12.448 18.1886 12.3395C17.9744 12.1221 17.6848 12 17.3829 12C17.0809 12 16.7913 12.1221 16.5771 12.3395L11.6743 17.3598C11.245 17.7957 11.0026 18.3877 11 19.006C11.0056 19.6202 11.2478 20.2075 11.6743 20.6405L16.5771 25.6608C16.6837 25.7689 16.8101 25.8544 16.949 25.9127C17.0879 25.9709 17.2367 26.0005 17.3869 26C17.5371 25.9994 17.6857 25.9687 17.8242 25.9095C17.9627 25.8503 18.0885 25.7638 18.1943 25.6549C18.3001 25.5461 18.3839 25.417 18.4409 25.2751C18.4978 25.1331 18.5269 24.9811 18.5264 24.8277C18.5258 24.6743 18.4957 24.5225 18.4378 24.381C18.3798 24.2395 18.2951 24.111 18.1886 24.0029L14.4286 20.1735H25.8571C26.1602 20.1735 26.4509 20.0505 26.6653 19.8315C26.8796 19.6126 27 19.3156 27 19.006C27 18.6963 26.8796 18.3994 26.6653 18.1804C26.4509 17.9615 26.1602 17.8385 25.8571 17.8385Z" fill="currentColor"/>
</svg>
