<svg width="109" height="48" viewBox="0 0 109 48" fill="none" xmlns="http://www.w3.org/2000/svg">
<g clip-path="url(#clip0_30_4029)">
<rect width="109" height="48" rx="12" fill="#FF7387"/>
<path d="M7.42258 1.18716C7.28229 1.04526 7.13282 0.862126 7.10988 0.759033C7.09153 0.676558 7.28718 0.676308 7.54721 0.769933C7.92459 0.902366 8.09493 0.886107 8.37598 0.585548C8.71919 0.271159 8.71919 0.271158 8.60137 0.816712C8.4652 1.27979 8.52262 1.44013 8.77569 1.60023C8.94825 1.69167 9.09313 1.85419 9.11148 1.93666C9.13441 2.03976 8.93418 2.01939 8.69487 1.92115C8.31749 1.78872 8.13101 1.83021 7.7625 2.12859C7.30415 2.51187 7.27884 2.49586 7.48871 1.97311C7.60638 1.62234 7.59277 1.36569 7.42258 1.18716Z" fill="#FFB9C3"/>
<path d="M18.0101 10.5601C18.0747 10.4592 18.1085 8.46089 18.1103 6.12344C18.1122 3.78599 18.1689 1.89075 18.2448 1.93877C18.3207 1.9868 19.0697 3.78935 21.4173 9.84539L24.9874 9.76522C26.9554 9.71688 29.0984 9.67289 30.9421 9.65221L28.6649 10.6566C27.4192 11.215 25.5288 12.0034 24.4927 12.4287C23.4566 12.854 22.5125 13.302 22.3812 13.3962C22.2753 13.5063 22.3084 15.3166 22.4724 17.4224C22.6158 19.5328 22.7477 21.4943 22.7291 21.8014C22.7333 22.2116 22.5103 21.8933 21.8278 20.4871C21.3406 19.4703 20.449 17.6129 18.783 14.1318L14.3981 14.2634C11.5484 14.3564 10.1697 14.3169 10.4161 14.1539C10.6257 14.0207 12.3987 13.1935 14.3582 12.3247C16.3131 11.4354 17.9663 10.6564 18.0101 10.5601Z" fill="#FFB9C3"/>
<path d="M15.4128 26.3504L14.8493 25.8699C14.5318 25.6159 14.3317 25.4007 14.4146 25.3823C14.4768 25.3685 14.845 25.4597 15.2385 25.5669C15.8966 25.7883 15.9381 25.7791 16.2952 25.3318C16.4818 25.0955 16.6938 24.8752 16.7352 24.866C16.7766 24.8568 16.7281 25.1273 16.5897 25.4826C16.4028 26.1085 16.4165 26.1704 16.9685 26.6967C17.2997 27.0125 17.5343 27.2849 17.4721 27.2988C17.41 27.3126 17.0533 27.1756 16.6415 26.9859C15.9903 26.698 15.9028 26.6958 15.6401 27.0788C15.4742 27.3105 15.2139 27.6064 15.0711 27.7464C14.8868 27.8956 14.9077 27.6962 15.4128 26.3504Z" fill="#FFB9C3"/>
<path d="M31.8137 30.9677C31.8299 30.9425 31.8422 29.9227 31.8547 28.7081C31.8671 27.4936 31.9139 26.531 31.9898 26.579C32.0658 26.6271 32.4632 27.534 33.6279 30.5208L35.7961 30.4929C36.9862 30.4661 38.1186 30.4739 38.2981 30.4988C38.4731 30.5032 38.0539 30.7695 37.3402 31.0798C36.6218 31.3695 35.5695 31.82 33.9601 32.5027L34.1747 34.6405C34.2866 35.8274 34.3364 36.8333 34.2789 36.8678C34.2259 36.9228 33.7455 36.0343 33.194 34.9236C32.5459 33.5746 32.0861 32.8763 31.8652 32.8605C31.6903 32.8562 30.6913 32.862 29.6509 32.8771C28.6105 32.8922 27.7819 32.8818 27.798 32.8565C27.8134 32.8324 28.6446 32.4485 29.6664 31.9766L29.8059 31.9121L29.944 31.8483C30.9664 31.3761 31.7983 30.9919 31.8137 30.9677Z" fill="#FFB9C3"/>
<path d="M19.9062 43.4195C20.1322 42.8715 20.1138 42.789 19.6768 42.3885L19.2306 41.9468L19.8059 42.1867C20.3558 42.4106 20.4387 42.3922 21.2611 41.4951L21.1065 42.0705C20.991 42.5289 21.0162 42.7398 21.3151 43.106C21.6784 43.5662 21.6784 43.5662 21.1285 43.3423C20.6038 43.1344 20.521 43.1529 19.6686 44.0133L19.9062 43.4195Z" fill="#FFB9C3"/>
<path d="M86.0181 16.0422C85.9885 15.9224 84.9296 14.2032 83.6618 12.2149C82.1853 9.86786 81.4995 8.64179 81.7537 8.77593C81.978 8.88019 83.6072 10.0291 88.5992 13.6702L92.5285 10.9955C95.3029 9.14718 96.3975 8.47075 96.202 8.81559C96.0517 9.08546 94.8946 10.7802 91.3637 15.8944L93.7059 19.3773C94.9888 21.2906 96.1374 23.0396 96.2417 23.2639C96.3908 23.5331 95.972 23.3544 94.9106 22.6533C94.0586 22.1014 92.3244 20.9977 91.0238 20.1773C89.2448 19.0587 88.6167 18.7608 88.3619 18.8962C88.1819 19.0164 86.6073 20.0533 84.8677 21.1955C83.143 22.3526 81.6583 23.3593 81.5833 23.4344C81.5082 23.5094 81.4483 23.5096 81.4485 23.4497C81.4337 23.3749 82.4858 21.7253 83.7482 19.7758C85.0256 17.8413 86.0329 16.1469 86.0181 16.0422Z" fill="#FFB9C3"/>
<path d="M74.3537 22.5387C74.0852 22.1201 73.8468 21.6715 73.7872 21.5519C73.7426 21.4172 74.1164 21.611 75.5064 22.6407L77.7858 21.1678L77.1399 22.0228C76.7944 22.4878 76.4637 22.9977 76.4184 23.1625C76.3731 23.3273 76.6562 23.8806 77.7307 25.3453L76.9531 24.9279C76.5195 24.7044 76.0561 24.3911 75.9067 24.2418C75.7125 24.0476 75.3979 24.1532 73.5832 25.3703L74.1996 24.3357C74.8009 23.3461 74.8011 23.2862 74.3537 22.5387Z" fill="#FFB9C3"/>
<path d="M60.8583 43.1138C60.8443 42.7395 60.7547 42.6199 60.3059 42.4713C59.7673 42.3229 59.7673 42.2929 60.3068 42.112C60.7563 41.9611 60.8465 41.8411 60.8624 41.4668C60.8779 41.2122 60.9382 41.0623 61.0278 41.152C61.1024 41.2566 61.1618 41.4661 61.1613 41.6757C61.1456 41.9901 61.2352 42.0498 61.6095 42.0639C61.8491 42.0633 62.0734 42.1675 62.0731 42.2873C62.0728 42.4071 61.848 42.5125 61.6084 42.513C61.2341 42.5289 61.159 42.604 61.1584 42.8735C61.1579 43.0831 61.0974 43.3228 61.0223 43.3978C60.9472 43.5028 60.8727 43.3683 60.8583 43.1138Z" fill="#FFB9C3"/>
<path d="M72.639 38.0543C72.6693 37.9345 72.1625 37.0074 71.5061 35.9909C70.8648 34.9593 70.4177 34.122 70.5225 34.1367C70.6423 34.1364 71.4495 34.6734 72.3312 35.3451C73.3923 36.136 74.0502 36.4938 74.275 36.4183C74.4548 36.358 75.3846 35.7569 76.3444 35.1257C77.3042 34.4645 78.0839 33.9835 78.0839 34.0135C78.0838 34.0434 77.4827 34.9432 75.4091 38.0027L76.6925 39.7363C77.3939 40.6779 77.9608 41.515 77.9307 41.5749C77.9155 41.6498 77.0782 41.1728 76.0467 40.5315C75.0152 39.8902 74.1481 39.3532 74.1181 39.3533C74.0895 39.3534 73.3191 39.8489 72.3723 40.458L72.2437 40.5407C71.239 41.187 70.3692 41.7281 70.2943 41.7433C70.2194 41.7584 70.7005 40.9787 71.3766 40.0038C72.0377 39.044 72.6088 38.1742 72.639 38.0543Z" fill="#FFB9C3"/>
<path d="M75.0134 52.9162C74.9098 52.4224 74.85 52.3626 74.3709 52.3638C74.0865 52.3495 73.922 52.275 74.0119 52.2149C74.102 52.1249 74.3118 52.0645 74.4764 52.079C74.686 52.0785 74.836 51.9584 74.9416 51.6437C75.0774 51.2391 75.1373 51.239 75.66 51.7617C76.1529 52.2546 76.1677 52.3295 75.7932 52.4052C75.4786 52.4809 75.3585 52.6009 75.3579 52.8704C75.3724 53.065 75.3119 53.3048 75.2519 53.3648C75.1918 53.4248 75.0875 53.2304 75.0134 52.9162Z" fill="#FFB9C3"/>
</g>
<defs>
<clipPath id="clip0_30_4029">
<rect width="109" height="48" rx="12" fill="white"/>
</clipPath>
</defs>
</svg>
