<svg width="38" height="38" viewBox="0 0 38 38" fill="none" xmlns="http://www.w3.org/2000/svg">
<path d="M16.1861 7.10354C16.136 7.0457 16.0874 6.99123 16.0423 6.94316C15.8436 6.72346 15.4773 6.36593 15.236 6.14756C14.9948 5.9292 14.5219 5.57501 14.181 5.35223C13.8404 5.13699 13.291 4.83791 12.9525 4.69038C12.6139 4.54285 12.0181 4.35067 11.6241 4.25006C11.0156 4.10347 10.7233 4.07498 9.70026 4.08449C8.82654 4.09683 8.33736 4.13478 7.92813 4.23046C7.6176 4.30045 7.13191 4.45125 6.85094 4.55797C6.57731 4.67199 6.10103 4.8978 5.80796 5.07268C5.50755 5.24026 5.01369 5.58713 4.70897 5.84521C4.40425 6.1033 3.95625 6.55416 3.72369 6.84764C3.48402 7.14135 3.15718 7.60347 2.99515 7.87967C2.83312 8.15588 2.5789 8.66844 2.43362 9.02696C2.28835 9.38548 2.10127 10.0014 2.01396 10.3957C1.92664 10.7901 1.83186 11.4031 1.80018 11.758C1.7756 12.1128 1.75869 12.7158 1.7703 13.092C1.78215 13.4757 1.85345 14.1739 1.92442 14.631C1.99562 15.0957 2.14572 15.814 2.25079 16.2249C2.36296 16.6356 2.56043 17.2771 2.69251 17.642C2.83169 18.0067 3.09282 18.6386 3.27553 19.032C3.45846 19.433 3.78373 20.0705 3.99413 20.4404C4.20477 20.8179 4.69064 21.5934 5.07061 22.1614C5.45769 22.7292 6.05878 23.5538 6.41373 24.002C6.76869 24.4503 7.39562 25.1913 7.80074 25.653C8.20586 26.1148 9.11665 27.0728 9.82785 27.781C10.5317 28.4819 11.6372 29.5317 12.2804 30.1065C12.9235 30.6813 14.0111 31.6111 14.6895 32.1773C15.3208 32.7042 16.324 33.5129 17.0058 34.0425C16.9886 33.9881 16.9719 33.9337 16.9563 33.8813C16.8775 33.6157 16.7534 33.2549 16.6842 33.0709C16.6504 32.9811 16.6015 32.8401 16.5486 32.6843C16.5059 32.5586 16.4606 32.4233 16.4184 32.2972L16.4124 32.2793L16.4101 32.2723L16.3816 32.1871C16.2875 31.8847 16.1104 31.4064 16.0027 31.1195C15.8879 30.8327 15.7784 30.4863 15.7528 30.3456C15.7464 30.3103 15.7377 30.2722 15.7274 30.2338L15.7176 30.1986C15.7118 30.1785 15.7056 30.1586 15.6991 30.1388L15.6907 30.1139C15.669 30.0515 15.6451 29.9949 15.6225 29.9557L15.6133 29.9406C15.5614 29.8603 15.4851 29.6765 15.4525 29.536L15.4346 29.4723L15.4068 29.3711C15.396 29.3314 15.3865 29.2952 15.3791 29.2659C15.3721 29.2382 15.367 29.2167 15.3646 29.2039L15.3299 29.1031L15.3248 29.0883C15.2908 28.9893 15.24 28.8417 15.1863 28.6883C15.1404 28.5575 15.0745 28.3733 15.0065 28.1863L14.944 28.015C14.9069 27.9138 14.8709 27.8165 14.839 27.7315C14.8153 27.6722 14.7922 27.6124 14.7703 27.5538L14.7386 27.4684C14.7072 27.3826 14.6791 27.3021 14.6562 27.234L14.6234 27.1342C14.6124 27.0997 14.6042 27.0722 14.5993 27.054C14.5751 26.958 14.5348 26.7955 14.5102 26.6846C14.4854 26.5662 14.4171 26.4121 14.3581 26.332C14.2992 26.2521 14.2513 26.0749 14.2474 25.9483C14.2433 25.8145 14.319 25.5219 14.4113 25.3104C14.5104 25.0915 14.6705 24.7886 14.772 24.644C14.8483 24.535 14.9471 24.3749 15.0195 24.241L15.0507 24.1819L15.0663 24.1505L15.0806 24.1207C15.154 23.9844 15.2404 23.8104 15.2736 23.7424L15.3513 23.6088C15.3985 23.5273 15.4613 23.4187 15.5302 23.3008L15.6625 23.075C15.8367 22.7718 15.9768 22.5068 15.9761 22.4845C15.9754 22.4622 16.1225 22.197 16.304 21.9009C16.4853 21.5975 16.78 21.0821 16.9535 20.7565C17.0877 20.5203 17.2697 20.1919 17.4147 19.9301L17.5489 19.6881C17.696 19.4229 17.9173 19.0438 18.038 18.839C18.172 18.6039 18.2497 18.3782 18.2451 18.2295C18.241 18.0956 18.1938 17.9407 18.1431 17.8977C18.1202 17.8751 18.0793 17.8214 18.0303 17.7506C18.0048 17.7137 17.9771 17.6722 17.9487 17.6279C17.9101 17.568 17.8702 17.5032 17.8324 17.4384C17.7204 17.2409 17.4165 16.7739 17.1723 16.4094L17.0957 16.2976L16.9969 16.1518C16.9327 16.0563 16.869 15.9607 16.8092 15.8705L16.5603 15.4948L16.5135 15.4251C16.4022 15.2499 16.239 14.9943 16.1432 14.8634C16.0544 14.7322 15.7663 14.3169 15.5004 13.9381C15.2348 13.5667 14.9163 13.0854 14.7973 12.8881C14.754 12.8139 14.71 12.7446 14.6698 12.6865C14.6389 12.6418 14.6102 12.6038 14.5858 12.5751C14.5706 12.5572 14.557 12.543 14.5457 12.533C14.5336 12.5227 14.5241 12.517 14.5176 12.5173C14.5055 12.5176 14.4744 12.4834 14.4322 12.4263C14.4082 12.3939 14.3807 12.3539 14.351 12.3089C14.3107 12.2477 14.2666 12.1769 14.2223 12.1021C14.1484 11.9733 14.0697 11.8289 14.0062 11.7042C13.9543 11.6024 13.9126 11.5136 13.8918 11.4574C13.8151 11.2589 13.8341 11.1913 14.0682 10.767C14.2082 10.502 14.3283 10.2748 14.3276 10.2526C14.3269 10.2303 14.7558 9.48732 15.2793 8.6072C15.6206 8.03597 15.9593 7.47411 16.1861 7.10354Z" fill="url(#paint0_linear_114_2113)" stroke="#C71101" stroke-width="2"/>
<path d="M20.6852 33.7789C21.2756 33.3252 22.1228 32.6606 22.6619 32.2289C23.2508 31.7574 23.9799 31.1639 24.2824 30.9059C24.5849 30.6479 25.3527 29.9808 25.9809 29.4206C26.6091 28.8604 27.6977 27.8382 28.3881 27.1526C29.0859 26.4599 30.0088 25.4906 30.4425 24.9897C30.8762 24.4888 31.4608 23.7836 31.7461 23.4269C32.0315 23.0702 32.5451 22.3618 32.8865 21.8569C33.228 21.3519 33.6777 20.6408 33.885 20.2807C34.0852 19.9202 34.4024 19.3163 34.5813 18.9549C34.7603 18.5936 35.0532 17.8906 35.2376 17.4014C35.4149 16.9119 35.6623 16.109 35.7828 15.617C35.9542 14.9313 36.026 14.4145 36.0973 13.408C36.1622 12.5519 36.1697 11.8742 36.1309 11.4505C36.1033 11.0952 36.007 10.5184 35.9227 10.1605C35.8455 9.80303 35.677 9.25317 35.5553 8.93892C35.4265 8.62437 35.1721 8.08581 34.9733 7.74559C34.7816 7.40568 34.3857 6.85339 34.0946 6.50913C33.7961 6.17207 33.2973 5.69816 32.9737 5.45043C32.6501 5.20269 32.1242 4.86321 31.7971 4.6982C31.47 4.53319 30.9393 4.30652 30.6096 4.20168C30.1609 4.05395 29.7299 3.98987 28.8796 3.92251C28.0009 3.8539 27.6029 3.85155 27.102 3.92757C26.7513 3.98003 26.1985 4.10652 25.8818 4.19814C25.5651 4.28976 25.03 4.4999 24.6891 4.65828C24.3479 4.82417 23.8232 5.12518 23.5229 5.33054C23.2227 5.5359 22.7067 5.96538 22.373 6.28983C22.26 6.39966 22.137 6.52441 22.0173 6.64964C21.902 6.82181 21.7945 6.98614 21.7208 7.10254C21.5764 7.34201 21.3663 7.63082 21.2552 7.75251C21.1511 7.87451 21.0307 8.04801 20.991 8.15054C20.9747 8.20204 20.9454 8.26606 20.9118 8.32709C20.8784 8.38797 20.8407 8.4457 20.8073 8.48508C20.74 8.5716 20.6427 8.70137 20.5902 8.77358L20.513 8.88787L19.8819 9.81504C19.5498 10.3144 19.2607 10.8008 19.2492 10.9045C19.2307 11.008 19.311 11.2796 19.4143 11.5076C19.5246 11.7359 19.7803 12.2015 19.9778 12.5377C20.1754 12.8742 20.3592 13.2025 20.3775 13.2703C20.3857 13.297 20.4199 13.3626 20.4685 13.4493C20.5056 13.5155 20.5511 13.5938 20.6 13.6766L20.6992 13.843C20.8583 14.0883 21.2598 14.7762 21.588 15.364C21.9228 15.9597 22.2788 16.5561 22.3856 16.7023C22.4924 16.8485 22.6108 17.0548 22.6486 17.1607C22.6865 17.2666 22.8167 17.5256 22.9351 17.7318C23.0461 17.9452 23.1423 18.173 23.1392 18.2473C23.1363 18.3142 23.0646 18.5047 22.9801 18.6649C22.8956 18.825 22.7979 18.9623 22.7691 18.9758C22.7406 18.982 22.5978 19.1843 22.4604 19.4241C22.316 19.6636 22.0973 19.9891 21.9705 20.1475C21.9007 20.23 21.8179 20.3444 21.7396 20.4607C21.6678 20.5672 21.5998 20.6754 21.5488 20.7622C21.4493 20.9439 21.2453 21.2553 21.1028 21.4501C20.9927 21.5984 20.8743 21.7626 20.7984 21.8678C20.771 21.9059 20.7491 21.9362 20.7352 21.9553L20.6563 22.0934C20.6253 22.1486 20.5947 22.2043 20.5745 22.2463C20.5528 22.3015 20.5105 22.3732 20.4671 22.4311C20.4574 22.4441 20.4476 22.4565 20.4379 22.4677L20.4194 22.4884L20.4083 22.4996C20.3493 22.5567 20.2145 22.7369 20.1089 22.8963C20.051 22.9834 19.9906 23.0816 19.9425 23.1658C19.9028 23.2354 19.8716 23.2956 19.8572 23.3321C19.8255 23.4127 19.6738 23.6592 19.5233 23.8761C19.3728 24.093 19.2159 24.2947 19.1723 24.3225C19.1358 24.3507 19.1204 24.3798 19.1486 24.381C19.1839 24.3826 19.0846 24.557 18.9415 24.7668C18.7907 24.991 18.6585 25.2757 18.6288 25.4755C18.5927 25.6601 18.589 25.9131 18.6051 26.033C18.6122 26.0703 18.6237 26.1194 18.638 26.1741C18.65 26.2205 18.6641 26.271 18.6794 26.322C18.6905 26.3592 18.7022 26.3969 18.7141 26.4332C18.7289 26.4783 18.7441 26.5218 18.7591 26.5611C18.8297 26.728 18.988 27.3235 19.1267 27.8807L19.2299 28.2926C19.2909 28.5347 19.3535 28.781 19.4086 28.9945C19.4581 29.1858 19.5016 29.3508 19.5326 29.4625C19.5786 29.6283 19.6512 29.8854 19.7285 30.159C19.7953 30.3954 19.8656 30.6443 19.9253 30.8575C20.054 31.3174 20.2168 31.9726 20.2865 32.3257C20.3563 32.6789 20.4654 33.1007 20.5219 33.267C20.5542 33.3621 20.6006 33.5041 20.6447 33.646C20.6586 33.6908 20.6723 33.7355 20.6852 33.7789Z" fill="url(#paint1_linear_114_2113)" stroke="#C71101" stroke-width="2"/>
<defs>
<linearGradient id="paint0_linear_114_2113" x1="17.3984" y1="3.82138" x2="18.3782" y2="35.0544" gradientUnits="userSpaceOnUse">
<stop offset="0.0631977" stop-color="white"/>
<stop offset="0.188282" stop-color="#F76154"/>
<stop offset="1" stop-color="#C40E04"/>
</linearGradient>
<linearGradient id="paint1_linear_114_2113" x1="20.0463" y1="3.48794" x2="18.6796" y2="34.706" gradientUnits="userSpaceOnUse">
<stop offset="0.0631977" stop-color="white"/>
<stop offset="0.188282" stop-color="#F76154"/>
<stop offset="1" stop-color="#C40E04"/>
</linearGradient>
</defs>
</svg>
