<svg width="22" height="22" viewBox="0 0 22 22" fill="none" xmlns="http://www.w3.org/2000/svg">
<path d="M16.0606 13.1762C15.964 12.8491 15.8468 12.5645 15.7092 12.3227C15.5716 12.0807 15.3746 11.8447 15.1177 11.6138C14.8612 11.3831 14.6304 11.1972 14.4257 11.0559C14.2212 10.9145 13.9402 10.7564 13.583 10.5815C13.2261 10.4065 12.9433 10.2764 12.7351 10.1907C12.5267 10.1052 12.2252 9.98805 11.8308 9.83923C11.4811 9.70538 11.2208 9.60303 11.0495 9.53239C10.8783 9.46168 10.6533 9.36129 10.3743 9.23099C10.0954 9.10089 9.88701 8.9855 9.74933 8.88511C9.61169 8.78472 9.46478 8.66197 9.30849 8.5169C9.1522 8.37183 9.04247 8.21741 8.97918 8.05374C8.91604 7.89002 8.88438 7.71141 8.88438 7.51794C8.88438 7.01209 9.10752 6.599 9.55395 6.27915C10.0004 5.9593 10.5771 5.7993 11.284 5.7993C11.5964 5.7993 11.9148 5.84202 12.2383 5.92767C12.5617 6.01332 12.8389 6.1098 13.0696 6.21778C13.3005 6.32575 13.518 6.44482 13.7227 6.57496C13.9274 6.70521 14.0724 6.80373 14.1581 6.87069C14.2436 6.9377 14.2979 6.9823 14.3199 7.00466C14.4168 7.07905 14.517 7.10505 14.6212 7.08281C14.7328 7.07538 14.8184 7.01576 14.8781 6.90427L15.7823 5.27476C15.8715 5.12601 15.8531 4.98462 15.7265 4.85061C15.6818 4.80597 15.6262 4.75393 15.5587 4.69436C15.492 4.63478 15.3468 4.52693 15.1234 4.3706C14.9002 4.21439 14.664 4.07487 14.4149 3.95208C14.1655 3.82941 13.8418 3.7047 13.4436 3.57828C13.0458 3.45166 12.6346 3.36617 12.2103 3.32156V1.35715C12.2103 1.25304 12.1769 1.16743 12.1101 1.10043C12.0432 1.03358 11.9576 1 11.8533 1H10.3464C10.2497 1 10.166 1.0353 10.0953 1.10602C10.0247 1.17674 9.98932 1.26039 9.98932 1.35715V3.36613C8.82109 3.58926 7.8724 4.08781 7.14322 4.86163C6.41411 5.6355 6.04942 6.53567 6.04942 7.56258C6.04942 7.86762 6.08117 8.1578 6.14442 8.43297C6.20759 8.70837 6.28577 8.95579 6.37881 9.17525C6.47177 9.39487 6.60391 9.61058 6.77501 9.82269C6.94612 10.0347 7.108 10.2171 7.2605 10.3695C7.41307 10.5219 7.61213 10.6801 7.85759 10.8437C8.1032 11.0075 8.3134 11.1397 8.4883 11.2401C8.66324 11.3402 8.89572 11.4559 9.18582 11.5858C9.476 11.7161 9.70488 11.8145 9.87232 11.8817C10.0397 11.9486 10.2685 12.0417 10.5588 12.1605C10.9606 12.3167 11.2582 12.4377 11.4517 12.5233C11.6453 12.6089 11.8907 12.7279 12.1885 12.8805C12.4861 13.0329 12.7036 13.1724 12.8414 13.299C12.979 13.4255 13.1036 13.5817 13.2153 13.7677C13.327 13.9537 13.3829 14.1508 13.3829 14.3593C13.3829 14.9471 13.1541 15.4009 12.6964 15.7206C12.2388 16.0406 11.7085 16.2006 11.1059 16.2006C10.8309 16.2006 10.5553 16.171 10.2801 16.1115C9.31283 15.9178 8.40883 15.4528 7.56803 14.7162L7.54571 14.6939C7.47871 14.6123 7.38938 14.5787 7.27789 14.5937C7.15882 14.6085 7.07321 14.6532 7.02117 14.7278L5.87155 16.2344C5.75991 16.3832 5.76745 16.5357 5.89391 16.6919C5.93117 16.7366 5.99626 16.8037 6.08922 16.8928C6.18241 16.9823 6.35544 17.1216 6.60828 17.3117C6.86121 17.5015 7.13653 17.6799 7.43422 17.8475C7.73187 18.0149 8.10942 18.1803 8.56711 18.3441C9.0248 18.5076 9.49902 18.6229 9.99014 18.6898V20.6429C9.99014 20.7398 10.0255 20.8234 10.0962 20.8942C10.1669 20.965 10.2505 21.0002 10.3472 21.0002H11.8541C11.9584 21.0002 12.044 20.9667 12.1109 20.8999C12.1778 20.833 12.2111 20.7474 12.2111 20.643V18.6898C13.3944 18.4964 14.3561 17.9886 15.0963 17.1663C15.8367 16.3441 16.207 15.3638 16.207 14.2255C16.2066 13.8535 16.1583 13.5038 16.0606 13.1762Z" fill="#FF5069"/>
</svg>
