<svg width="60" height="59" viewBox="0 0 60 59" fill="none" xmlns="http://www.w3.org/2000/svg">
<path d="M29.2823 6C20.5823 6 13.5 13.0754 13.5 21.7754C13.5 29.4831 19.0731 35.9169 26.3677 37.2854V42.0531H22.2323C20.7715 42.0531 19.59 43.2392 19.59 44.6977C19.59 46.1562 20.7715 47.3423 22.2323 47.3423H26.3677V50.3123C26.3677 51.7731 27.5538 52.9569 29.0146 52.9569C30.4754 52.9569 31.6638 51.7685 31.6638 50.3123V47.3423H36.0069C37.4677 47.3423 38.6515 46.1515 38.6515 44.6977C38.6515 43.2323 37.4677 42.0531 36.0069 42.0531H31.6638V37.3708C39.2585 36.2169 45.0554 29.6631 45.0554 21.7754C45.0554 13.0754 37.9823 6 29.2823 6ZM29.2823 32.2592C23.4969 32.2592 18.7938 27.5538 18.7938 21.7708C18.7938 15.9877 23.4969 11.2823 29.2823 11.2823C35.0631 11.2823 39.7685 15.9877 39.7685 21.7708C39.7685 27.5538 35.0654 32.2592 29.2823 32.2592Z" fill="currentColor"/>
</svg>
