<svg width="38" height="38" viewBox="0 0 38 38" fill="none" xmlns="http://www.w3.org/2000/svg">
<path d="M8.37291 3.9021C8.6587 3.80502 9.1517 3.6706 9.46607 3.61086C9.88047 3.52871 10.3735 3.50631 11.2523 3.52125C12.2811 3.54365 12.5741 3.58099 13.1814 3.74528C13.5743 3.85729 14.1674 4.06638 14.5032 4.2232C14.839 4.38002 15.382 4.69366 15.7178 4.91769C16.0536 5.14919 16.518 5.5151 16.7538 5.73913C16.9896 5.96316 17.3468 6.32907 17.5397 6.5531C17.7398 6.77713 18.0113 7.13557 18.1542 7.3372C18.2971 7.54629 18.5543 7.95701 19.0401 8.80085L19.3831 8.18104C19.576 7.83753 19.8618 7.37453 20.019 7.15051C20.1833 6.92648 20.5763 6.47095 20.8906 6.14238C21.2122 5.80634 21.7123 5.35828 22.0052 5.14172C22.2982 4.92516 22.8126 4.60405 23.1484 4.42483C23.4842 4.25307 24.0129 4.02158 24.3273 3.91703C24.6417 3.81248 25.1918 3.66313 25.5419 3.59592C26.0421 3.49884 26.4422 3.48391 27.3281 3.51378C28.1855 3.54365 28.6214 3.58846 29.0786 3.71541C29.4144 3.80502 29.9574 4.00664 30.2932 4.15599C30.6291 4.30535 31.1721 4.61899 31.5079 4.85048C31.8437 5.08198 32.3652 5.53003 32.6796 5.85114C32.9868 6.17972 33.4084 6.70992 33.6156 7.03849C33.8299 7.36707 34.1086 7.8898 34.2515 8.19597C34.3872 8.50214 34.5801 9.03981 34.673 9.39079C34.7731 9.74177 34.8945 10.3093 34.9374 10.6603C34.9945 11.0785 35.016 11.7506 34.9874 12.6019C34.9588 13.6025 34.9088 14.1178 34.7659 14.8048C34.6659 15.2977 34.4515 16.1042 34.2943 16.597C34.13 17.0899 33.8657 17.7993 33.7013 18.1652C33.537 18.5311 33.2441 19.1435 33.0583 19.5094C32.8654 19.8753 32.4438 20.5997 32.1223 21.1149C31.8008 21.6302 31.315 22.3546 31.0435 22.7205C30.7719 23.0864 30.2147 23.8107 29.8003 24.326C29.3859 24.8413 28.4999 25.8419 27.8283 26.5588C27.1638 27.2682 26.1135 28.3286 25.5062 28.9111C24.8989 29.4936 24.1558 30.1881 23.8629 30.4569C23.57 30.7257 22.8626 31.3456 22.291 31.8384C21.7194 32.3313 20.7906 33.1154 20.219 33.5858L20.1122 33.6723C19.5856 34.0989 19.1375 34.4619 19.0973 34.4969C19.033 34.5342 18.6114 34.2355 17.8112 33.5709C17.1468 33.0332 16.0607 32.1147 15.3963 31.5323C14.7318 30.9498 13.6672 29.9939 13.0385 29.404C12.4097 28.814 11.3309 27.7387 10.645 27.0218C9.95192 26.2975 9.06596 25.3192 8.67299 24.8487C8.28003 24.3783 7.67272 23.6241 7.32977 23.1685C6.98681 22.713 6.40808 21.8766 6.03655 21.3016C5.67217 20.7266 5.20775 19.9425 5.0077 19.5617C4.80764 19.1883 4.50041 18.5461 4.32894 18.1428C4.15746 17.747 3.91454 17.1123 3.78593 16.7464C3.66447 16.3805 3.48585 15.7383 3.38582 15.3275C3.29294 14.9168 3.16433 14.1999 3.10717 13.7369C3.05001 13.2814 3 12.5869 3 12.2061C3 11.8327 3.03572 11.2353 3.07145 10.8843C3.11432 10.5333 3.22863 9.92846 3.32866 9.54014C3.42869 9.15182 3.63589 8.54695 3.79308 8.19597C3.95026 7.84499 4.22177 7.34466 4.39324 7.07583C4.56472 6.807 4.90767 6.35894 5.15774 6.07517C5.40066 5.7914 5.86508 5.35828 6.17945 5.11185C6.49382 4.86542 7.0011 4.53684 7.30833 4.38002C7.60841 4.21573 8.09426 4.00664 8.37291 3.9021Z" fill="url(#paint0_linear_114_2114)" stroke="#C71101" stroke-width="2"/>
<defs>
<linearGradient id="paint0_linear_114_2114" x1="19" y1="3.5" x2="19" y2="34.5" gradientUnits="userSpaceOnUse">
<stop offset="0.0631977" stop-color="white"/>
<stop offset="0.188282" stop-color="#F76154"/>
<stop offset="1" stop-color="#C40E04"/>
</linearGradient>
</defs>
</svg>
