<svg width="80" height="38" viewBox="0 0 80 38" fill="none" xmlns="http://www.w3.org/2000/svg">
<path d="M29.2185 24.6076V16.9984L31.2518 16.3129L31.2391 24.5684C31.2391 24.8948 31.3789 25.1723 31.6585 25.4008C31.9381 25.6293 32.2685 25.7436 32.6497 25.7436C33.0479 25.7436 33.3868 25.6293 33.6664 25.4008C33.9544 25.1658 34.0985 24.8916 34.0985 24.5782C34.0985 24.5782 34.0985 24.5749 34.0985 24.5684L34.1112 16.9984L36.1445 16.3129L36.1318 24.5684C36.1318 24.8948 36.2716 25.1723 36.5512 25.4008C36.8307 25.6293 37.1612 25.7436 37.5424 25.7436C37.9321 25.7436 38.271 25.6293 38.5591 25.4008C38.8471 25.1723 38.9911 24.8948 38.9911 24.5684L39.0039 16.9984L41.0372 16.3129V24.6174C41.0372 25.3486 40.6983 25.9753 40.0205 26.4976C39.3427 27.0199 38.5252 27.2811 37.5678 27.2811C36.5766 27.2811 35.759 27.0264 35.1151 26.5172C34.4374 27.0264 33.624 27.2811 32.6752 27.2811C31.6585 27.2811 30.8325 27.0264 30.197 26.5172C29.5532 26.0014 29.227 25.3649 29.2185 24.6076Z" fill="#FF5069"/>
<path d="M62.6154 25.6946C63.3271 25.6946 63.954 25.4889 64.4962 25.0776C65.0215 24.6794 65.2926 24.1767 65.3095 23.5695V23.4324L67.3429 22.7371V23.5989C67.3429 24.5129 66.8345 25.3877 65.8179 26.2234C64.9537 26.9285 63.8608 27.2811 62.5392 27.2811C61.2175 27.2811 60.0907 26.922 59.1588 26.2038C58.2268 25.4857 57.7609 24.6174 57.7609 23.5989V19.9951C57.7609 18.9766 58.2268 18.1083 59.1588 17.3901C60.0907 16.672 61.2175 16.3129 62.5392 16.3129C63.81 16.3129 64.941 16.672 65.9322 17.3901C66.8727 18.0691 67.3429 18.9374 67.3429 19.9951V20.9156L59.7942 23.501C59.7942 24.1212 60.061 24.6435 60.5948 25.0678C61.1285 25.4857 61.8021 25.6946 62.6154 25.6946ZM62.4629 17.8994C61.7512 17.8994 61.1285 18.105 60.5948 18.5163C60.061 18.9276 59.7942 19.4206 59.7942 19.9951C59.7942 20.0081 59.7942 20.0179 59.7942 20.0245V21.7872L65.2968 19.8972C65.2545 19.3487 64.9876 18.8885 64.4962 18.5163C63.954 18.105 63.2762 17.8994 62.4629 17.8994Z" fill="#FF5069"/>
<path d="M48.8631 23.5695C48.8631 24.1702 49.1469 24.6729 49.7145 25.0776C50.2906 25.4889 50.9472 25.6946 51.6843 25.6946C52.3959 25.6946 53.0229 25.4889 53.5651 25.0776C54.0904 24.6794 54.3615 24.1767 54.3784 23.5695V20.0245C54.3615 19.4173 54.0904 18.9146 53.5651 18.5163C53.0229 18.105 52.3451 17.8994 51.5318 17.8994C50.8201 17.8994 50.1974 18.105 49.6637 18.5163C49.1384 18.9211 48.8715 19.4042 48.8631 19.9657V23.5695ZM46.8297 31.1101V19.9951C46.8297 18.9766 47.2999 18.1083 48.2404 17.3901C49.1808 16.672 50.3118 16.3129 51.6335 16.3129C52.9551 16.3129 54.0819 16.672 55.0138 17.3901C55.9458 18.1083 56.4118 18.9766 56.4118 19.9951V23.5989C56.4118 24.6174 55.9458 25.4857 55.0138 26.2038C54.0819 26.922 52.9551 27.2811 51.6335 27.2811C50.5914 27.2811 49.6679 27.0591 48.8631 26.6151V30.4246L46.8297 31.1101Z" fill="#FF5069"/>
<path d="M42.85 14.549C42.5535 14.314 42.4052 14.0332 42.4052 13.7068C42.4052 13.3738 42.5535 13.0898 42.85 12.8548C43.1466 12.6198 43.5066 12.5023 43.9302 12.5023C44.3538 12.5023 44.7139 12.6198 45.0104 12.8548C45.307 13.0898 45.4552 13.3738 45.4552 13.7068C45.4552 14.0332 45.307 14.314 45.0104 14.549C44.7139 14.784 44.3538 14.9016 43.9302 14.9016C43.5066 14.9016 43.1466 14.784 42.85 14.549ZM42.6594 27.8773V17.2029L45.074 16.3215H45.2011V26.9959L42.7865 27.8773H42.6594Z" fill="#FF5069"/>
<path d="M13.2496 26.013C14.7716 27.2567 16.8268 27.8786 19.4152 27.8786L27.8304 22.8608V21.4198C27.8304 19.3783 27.0806 17.8558 25.5808 16.8523C24.1144 15.8745 22.0537 15.3855 19.3986 15.3855C18.1877 15.3855 17.2489 15.0982 16.5824 14.5235C16.0825 14.0946 15.8325 13.4127 15.8325 12.4778C15.8325 11.5085 16.1602 10.7623 16.8157 10.2391C17.4711 9.71587 18.3376 9.45426 19.4152 9.45426C20.3817 9.45426 21.2149 9.69014 21.9148 10.1619C22.6369 10.6508 22.9979 11.4228 22.9979 12.4778V13.6358H23.1646L26.3307 12.4778C26.3307 10.7966 25.6419 9.52288 24.2644 8.65656C23.7226 8.31616 23.0703 8.0444 22.3076 7.84127C22.9724 7.6562 23.5801 7.49597 24.0631 7.38034C25.5784 7.01757 29.4189 6.31112 29.4189 6.31112C29.4189 6.31112 34.2683 5.8732 37.3874 5.89107C40.4585 5.90868 42.2285 5.86907 45.2252 6.3875C46.9982 6.69422 48.5955 7.13213 49.6667 7.45671C50.7378 7.7813 52.6973 8.54502 53.9775 9.11782C55.2577 9.70971 56.5901 10.378 57.4784 11.0271L54.6568 13.3183L59.5423 13.9675C62.2333 14.3112 65.1856 14.7121 66.1261 14.8458C67.0667 14.9794 68.0856 15.1131 69 15.1322L68.5036 14.2157C68.2423 13.7193 67.1712 11.5617 66.1261 9.40422C65.055 7.24669 64.1667 5.45193 64.1144 5.39465C64.0622 5.33737 63.4351 5.77652 61.4757 7.39943L60.718 7.05576C60.3261 6.86483 59.0459 6.3684 57.8964 5.92926C56.7468 5.50921 54.8658 4.89823 53.7162 4.59274C52.5667 4.28725 50.6856 3.8672 49.536 3.67627C48.3865 3.46624 46.5258 3.22569 44.5721 3.10347C42.2331 2.95716 40.9037 2.97412 38.5631 3.10347C36.2499 3.23131 34.9525 3.37861 32.6847 3.75264C30.5596 4.10314 29.3893 4.38455 27.3288 4.91732C25.6194 5.35934 24.6793 5.65107 23.0143 6.18451C21.5933 6.63977 20.5286 6.82362 19.4152 7.42141L12.4997 11.5386V12.7737C12.4997 14.2319 13.0552 15.3598 14.1661 16.1575C15.5992 17.1868 17.3434 17.7015 19.3986 17.7015C21.2316 17.7015 22.6036 18.1046 23.5145 18.9109C24.17 19.4941 24.4977 20.339 24.4977 21.4455C24.4977 22.5949 24.0977 23.5255 23.2979 24.2374C22.2981 25.1209 21.0038 25.5627 19.4152 25.5627C17.7933 25.5627 16.4991 25.1209 15.5326 24.2374C14.7327 23.5084 14.3328 22.5777 14.3328 21.4455V20.2875H14.1661L11 21.4455C11 23.2639 11.7499 24.7864 13.2496 26.013Z" fill="#FF5069"/>
<path d="M27.7294 29.257C26.0326 29.244 24.1679 29.2146 23.5731 29.2015C22.9783 29.1885 22.3354 29.1813 21.7714 29.2381L22.3091 29.9329C22.6039 30.3262 23.5399 31.5978 24.392 32.7816C25.2602 33.9634 25.9878 34.9416 26.0273 34.9736C26.0667 35.0056 26.3951 34.6832 27.3891 33.5188L27.8987 33.6772C28.164 33.7674 29.0487 33.9903 29.8618 34.1852C30.675 34.3801 32.1273 34.6439 33.1046 34.7573C34.0844 34.8827 35.5874 34.9932 36.4438 34.9987C37.4335 35.0125 38.8441 34.9134 40.2559 34.7406C41.6838 34.5658 43.0648 34.3231 44.062 34.0538C44.9223 33.8381 46.2071 33.4477 46.9267 33.1879C47.6487 32.94 49.0114 32.3683 49.9581 31.9335C50.9048 31.4986 52.4206 30.7119 53.2995 30.1872C54.176 29.6506 55.466 28.8057 56.1523 28.3045C56.8227 27.8054 57.6313 27.1789 57.9239 26.9222C58.3412 26.5522 58.2362 26.6018 57.3672 27.1744C56.7734 27.5661 55.3428 28.3668 54.1985 28.9608C53.0543 29.5548 51.3546 30.3272 50.4412 30.6844C49.5279 31.0416 48.0677 31.5393 47.2149 31.7909C45.898 32.1852 45.1674 32.3114 42.3758 32.6532C39.3596 33.0224 38.9536 33.0476 37.4987 32.9313C36.63 32.8659 35.3331 32.718 34.6334 32.5951C33.9338 32.4722 32.632 32.1409 31.772 31.8781C30.9096 31.6034 30.0052 31.2847 29.376 30.9447L30.8132 29.2966L27.7294 29.257Z" fill="#FF5069"/>
</svg>
