<svg width="60" height="59" viewBox="0 0 60 59" fill="none" xmlns="http://www.w3.org/2000/svg">
<path d="M49.2454 12.1242C49.2318 12.1128 49.2136 12.1037 49.2045 12.0924C48.5918 11.4888 47.7432 11.2505 46.958 11.3798L37.8765 11.4978C36.4401 11.5183 35.2919 12.696 35.31 14.1324C35.3282 15.5643 36.4152 16.6331 37.9423 16.6967L40.9831 16.6581L36.5332 21.108C33.8872 19.1565 30.7012 18.1013 27.3496 18.1013C23.206 18.1013 19.3097 19.7147 16.3801 22.6443C10.3349 28.6918 10.3349 38.5335 16.3801 44.581C19.3097 47.5105 23.206 49.124 27.3496 49.124C31.4909 49.124 35.3895 47.5105 38.319 44.581C43.6744 39.221 44.2939 30.8862 40.1594 24.8477L44.8317 20.189V23.5906C44.8317 25.027 45.9981 26.1888 47.4323 26.1888C48.8732 26.1888 50.0328 25.0247 50.0328 23.5906V13.969C50.0328 13.2792 49.7401 12.612 49.2454 12.1242ZM34.6429 40.9048C30.7489 44.7988 23.9571 44.7988 20.0585 40.9048C16.0375 36.886 16.0375 30.3415 20.0585 26.3205C22.0078 24.3735 24.597 23.3001 27.3518 23.3001C30.109 23.3001 32.6936 24.3735 34.6474 26.3205C38.6662 30.3393 38.6662 36.886 34.6429 40.9048Z" fill="currentColor"/>
</svg>
