<svg width="32" height="32" viewBox="0 0 32 32" fill="none" xmlns="http://www.w3.org/2000/svg">
<circle cx="16" cy="16" r="16" fill="white"/>
<path d="M7.23741 15.1659C12.0692 13.4725 15.2912 12.356 16.9033 11.8166C21.5063 10.2765 22.4628 10.0089 23.0861 10.0001C23.2233 9.99816 23.5298 10.0255 23.7283 10.1551C23.8961 10.2646 23.9422 10.4124 23.9643 10.5162C23.9863 10.62 24.0138 10.8564 23.992 11.0411C23.7426 13.1494 22.6633 18.2658 22.1141 20.6271C21.8817 21.6263 21.4244 21.9614 20.9814 21.9941C20.0189 22.0653 19.2879 21.4824 18.3557 20.9908C16.897 20.2215 16.073 19.7427 14.6569 18.9921C13.0205 18.1245 14.0813 17.6478 15.0138 16.8685C15.2579 16.6645 19.4989 13.5615 19.581 13.28C19.5912 13.2448 19.6008 13.1136 19.5038 13.0443C19.4069 12.975 19.2638 12.9987 19.1607 13.0175C19.0143 13.0443 16.6839 14.2834 12.1694 16.7349C11.5079 17.1003 10.9087 17.2783 10.3719 17.269C9.78012 17.2587 8.64175 16.9998 7.79548 16.7785C6.7575 16.507 5.93252 16.3636 6.00436 15.9025C6.04178 15.6625 6.45279 15.417 7.23741 15.1659Z" fill="#FF5069"/>
</svg>
